<?xml version="1.0"?>
<svg width="440" height="440" xmlns="http://www.w3.org/2000/svg" xmlns:svg="http://www.w3.org/2000/svg" enable-background="new 0 0 440 440" version="1.1" xml:space="preserve">
 <g class="layer">
  <title>Layer 1</title>
  <g id="svg_1">
   <path d="m340.57,241.14c-54.83,0 -99.43,44.61 -99.43,99.43c0,54.83 44.61,99.43 99.43,99.43s99.43,-44.6 99.43,-99.43c0,-54.82 -44.6,-99.43 -99.43,-99.43zm-12.45,153.96l-58.81,-58.8l21.22,-21.22l37.59,37.6l56.04,-56.04l21.21,21.22l-77.25,77.24z" fill="#ffffff" id="svg_2"/>
   <path d="m166.62,119.4c-24.81,0 -45,20.18 -45,45s20.19,45 45,45c24.81,0 45,-20.19 45,-45s-20.19,-45 -45,-45z" fill="#ffffff" id="svg_3"/>
   <path d="m326.98,211.85c4.07,-14.39 6.26,-29.56 6.26,-45.23c0,-91.87 -74.75,-166.62 -166.62,-166.62c-91.87,0 -166.62,74.75 -166.62,166.62c0,38.93 13.42,74.78 35.88,103.18l130.74,164.37l48.64,-61.15c-2.69,-10.37 -4.12,-21.25 -4.12,-32.45c0,-66.78 50.84,-121.91 115.84,-128.72zm-235.36,-47.45c0,-41.36 33.65,-75 75,-75c41.35,0 75,33.64 75,75s-33.65,75 -75,75c-41.35,0 -75,-33.65 -75,-75z" fill="#ffffff" id="svg_4"/>
  </g>
  <g id="svg_5"/>
  <g id="svg_6"/>
  <g id="svg_7"/>
  <g id="svg_8"/>
  <g id="svg_9"/>
  <g id="svg_10"/>
  <g id="svg_11"/>
  <g id="svg_12"/>
  <g id="svg_13"/>
  <g id="svg_14"/>
  <g id="svg_15"/>
  <g id="svg_16"/>
  <g id="svg_17"/>
  <g id="svg_18"/>
  <g id="svg_19"/>
 </g>
</svg>