<?xml version="1.0"?>
<svg width="612" height="612" xmlns="http://www.w3.org/2000/svg" xmlns:svg="http://www.w3.org/2000/svg" enable-background="new 0 0 612 612" version="1.1" xml:space="preserve">
 <g class="layer">
  <title>Layer 1</title>
  <g id="svg_1">
   <path d="m586.92,256.01c-7.96,-8.24 -16.65,-13.07 -24.53,-15.91c10.8,-62.81 8.82,-97.9 -246.64,-178.33c-259.98,-81.84 -289.06,-47.92 -310.48,20.1l-3.65,11.6c-5.79,18.41 4.43,38.03 22.84,43.82l83.4,26.26c18.41,5.79 38.03,-4.43 43.82,-22.84l3.65,-11.6c16.59,-52.69 97.78,-28.91 143.76,-14.43c45.99,14.48 126.16,41.49 109.57,94.18l-3.65,11.6c-5.79,18.41 4.43,38.03 22.84,43.82l83.4,26.26c18.41,5.8 38.03,-4.43 43.82,-22.83l2.37,-8.04c4.93,2.03 10.23,5.15 15.12,10.21c17.56,18.18 23.38,53.31 16.85,101.59c-11.34,83.66 -44.21,113.54 -79.23,123.48l0,-14.55c0,-14.78 -3.69,-29.4 -11.18,-42.18c-34.94,-59.8 -84.55,-112.86 -147.59,-159.63l0,-35.34c0,-2.74 -2.25,-4.99 -5,-4.99l-51.86,0c-2.79,0 -4.99,2.25 -4.99,4.99l0,35.14l-59.2,0l0,-35.14c0,-2.74 -2.24,-4.99 -4.99,-4.99l-51.91,0c-2.75,0 -4.99,2.25 -4.99,4.99l0,35.14c-63.14,46.87 -112.81,99.93 -147.8,159.83c-7.49,12.78 -11.18,27.4 -11.18,42.18l0,32.89c0,46.87 37.99,84.86 84.85,84.86l330.99,0c46.13,0 83.58,-36.83 84.74,-82.68c56.12,-13.15 87.95,-58.93 99.11,-141.32c7.5,-55.33 0.01,-95.08 -22.26,-118.14zm-240.38,225.26l-33.3,-11.86c3.53,-7.12 5.57,-15.11 5.57,-23.6c0,-29.35 -23.81,-53.16 -53.21,-53.16c-29.35,0 -53.21,23.81 -53.21,53.16c0,29.4 23.86,53.21 53.21,53.21c10.87,0 20.97,-3.27 29.39,-8.86l18.26,30.02c-13.76,8.84 -30.08,14.03 -47.65,14.03c-48.81,0 -88.35,-39.59 -88.35,-88.4c0,-48.77 39.54,-88.35 88.35,-88.35c48.82,0 88.4,39.58 88.4,88.35c0,12.62 -2.69,24.6 -7.46,35.46z" fill="#ffffff" id="svg_2"/>
  </g>
  <g id="svg_3"/>
  <g id="svg_4"/>
  <g id="svg_5"/>
  <g id="svg_6"/>
  <g id="svg_7"/>
  <g id="svg_8"/>
  <g id="svg_9"/>
  <g id="svg_10"/>
  <g id="svg_11"/>
  <g id="svg_12"/>
  <g id="svg_13"/>
  <g id="svg_14"/>
  <g id="svg_15"/>
  <g id="svg_16"/>
  <g id="svg_17"/>
 </g>
</svg>