<?xml version="1.0"?>
<svg width="308.728" height="308.728" xmlns="http://www.w3.org/2000/svg" xmlns:svg="http://www.w3.org/2000/svg" enable-background="new 0 0 308.728 308.728" version="1.1" xml:space="preserve">
 <g class="layer">
  <title>Layer 1</title>
  <g id="svg_1">
   <g id="svg_2">
    <path d="m153.19,27.21c-37.56,1.13 -130,55.06 -144.5,63.65l-7.98,32.66l40.24,28.81l-7.74,-27.01l189.62,-54.29l26.9,93.95l58.1,-41.33l-10.01,-32.7c-13.97,-8.29 -106.94,-62.61 -144.63,-63.74z" fill="#ffffff" id="svg_3"/>
    <polygon fill="#ffffff" id="svg_4" points="308.728,281.52 308.728,195.199 308.728,160.289 308.728,136.255 306.809,137.621 252.882,175.988     222.101,197.888 226.557,202.27 231.942,207.581 237.326,212.886 243.833,219.288 307.02,281.52   "/>
    <polygon fill="#ffffff" id="svg_5" points="0,137.415 0,150.224 0,281.52 1.479,281.52 60.832,221.766 66.667,215.892 72.127,210.391 77.588,204.891     85.158,197.271 45.731,169.042 8.147,142.135 0,136.299   "/>
    <path d="m231.91,222.71l-9.7,-9.55l-5.39,-5.31l-5.39,-5.31l-1.38,-1.37l-5.49,-5.4l-0.95,-0.93c-1.6,-1.58 -3.27,-3.06 -4.99,-4.47c-12.78,-10.45 -28.66,-16.15 -45.4,-16.15c-16.77,0 -32.62,5.69 -45.39,16.13c-1.94,1.59 -3.82,3.27 -5.6,5.06l-0.34,0.34l-5.36,5.4l-3.45,3.48l-5.46,5.49l-5.46,5.5l-17.92,18.04l-47.28,47.6l274.4,0l-59.45,-58.55z" fill="#ffffff" id="svg_6"/>
   </g>
  </g>
  <g id="svg_7"/>
  <g id="svg_8"/>
  <g id="svg_9"/>
  <g id="svg_10"/>
  <g id="svg_11"/>
  <g id="svg_12"/>
  <g id="svg_13"/>
  <g id="svg_14"/>
  <g id="svg_15"/>
  <g id="svg_16"/>
  <g id="svg_17"/>
  <g id="svg_18"/>
  <g id="svg_19"/>
  <g id="svg_20"/>
  <g id="svg_21"/>
 </g>
</svg>